<mxfile host="drawio-plugin" modified="2024-02-04T22:40:53.723Z" agent="5.0 (X11; Linux x86_64) AppleWebKit/537.36 (KHTML, like Gecko) Chrome/111.0.0.0 Safari/537.36" etag="zAnPhL-JzNp6shUTYNiT" version="20.5.3" type="embed"><diagram name="Page-1" id="scBJmOfw38BWmSyd4WaF"><mxGraphModel dx="2376" dy="2139" grid="0" gridSize="10" guides="0" tooltips="1" connect="1" arrows="1" fold="1" page="0" pageScale="1" pageWidth="850" pageHeight="1100" math="0" shadow="0"><root><mxCell id="0"/><mxCell id="1" parent="0"/><mxCell id="20" style="edgeStyle=orthogonalEdgeStyle;rounded=0;orthogonalLoop=1;jettySize=auto;html=1;exitX=0.5;exitY=1;exitDx=0;exitDy=0;strokeWidth=1;startArrow=none;startFill=0;endArrow=none;endFill=0;dashed=1;dashPattern=1 4;" parent="1" source="jBOrhGmteX4rWtkHZ4kV-2" target="jBOrhGmteX4rWtkHZ4kV-43" edge="1"><mxGeometry relative="1" as="geometry"/></mxCell><mxCell id="jBOrhGmteX4rWtkHZ4kV-2" value="Gateway API" style="rounded=1;whiteSpace=wrap;html=1;fillColor=#a20025;fontColor=#ffffff;strokeColor=#6F0000;gradientColor=#000000;" parent="1" vertex="1"><mxGeometry x="-94" y="110" width="934" height="60" as="geometry"/></mxCell><mxCell id="jBOrhGmteX4rWtkHZ4kV-22" style="edgeStyle=orthogonalEdgeStyle;rounded=1;orthogonalLoop=1;jettySize=auto;html=1;exitX=0.55;exitY=0.95;exitDx=0;exitDy=0;exitPerimeter=0;entryX=0.264;entryY=-0.006;entryDx=0;entryDy=0;entryPerimeter=0;endArrow=none;endFill=0;" parent="1" source="jBOrhGmteX4rWtkHZ4kV-23" target="jBOrhGmteX4rWtkHZ4kV-2" edge="1"><mxGeometry relative="1" as="geometry"/></mxCell><mxCell id="19" style="edgeStyle=orthogonalEdgeStyle;rounded=0;orthogonalLoop=1;jettySize=auto;html=1;exitX=0.55;exitY=0.95;exitDx=0;exitDy=0;exitPerimeter=0;entryX=0.5;entryY=0;entryDx=0;entryDy=0;strokeWidth=1;startArrow=none;startFill=0;endArrow=none;endFill=0;" parent="1" source="jBOrhGmteX4rWtkHZ4kV-23" target="jBOrhGmteX4rWtkHZ4kV-2" edge="1"><mxGeometry relative="1" as="geometry"/></mxCell><mxCell id="45" style="edgeStyle=orthogonalEdgeStyle;rounded=0;orthogonalLoop=1;jettySize=auto;html=1;exitX=0.55;exitY=0.95;exitDx=0;exitDy=0;exitPerimeter=0;entryX=0.681;entryY=0.008;entryDx=0;entryDy=0;entryPerimeter=0;strokeWidth=1;startArrow=none;startFill=0;endArrow=none;endFill=0;" parent="1" source="jBOrhGmteX4rWtkHZ4kV-23" target="jBOrhGmteX4rWtkHZ4kV-2" edge="1"><mxGeometry relative="1" as="geometry"/></mxCell><mxCell id="46" style="edgeStyle=orthogonalEdgeStyle;rounded=0;orthogonalLoop=1;jettySize=auto;html=1;exitX=0.55;exitY=0.95;exitDx=0;exitDy=0;exitPerimeter=0;entryX=0.846;entryY=0.016;entryDx=0;entryDy=0;entryPerimeter=0;strokeWidth=1;startArrow=none;startFill=0;endArrow=none;endFill=0;" parent="1" source="jBOrhGmteX4rWtkHZ4kV-23" target="jBOrhGmteX4rWtkHZ4kV-2" edge="1"><mxGeometry relative="1" as="geometry"/></mxCell><mxCell id="47" style="edgeStyle=orthogonalEdgeStyle;rounded=0;orthogonalLoop=1;jettySize=auto;html=1;exitX=0.55;exitY=0.95;exitDx=0;exitDy=0;exitPerimeter=0;entryX=0.967;entryY=0;entryDx=0;entryDy=0;entryPerimeter=0;strokeWidth=1;startArrow=none;startFill=0;endArrow=none;endFill=0;" parent="1" source="jBOrhGmteX4rWtkHZ4kV-23" target="jBOrhGmteX4rWtkHZ4kV-2" edge="1"><mxGeometry relative="1" as="geometry"/></mxCell><mxCell id="108" style="edgeStyle=orthogonalEdgeStyle;rounded=0;orthogonalLoop=1;jettySize=auto;html=1;exitX=0.625;exitY=0.2;exitDx=0;exitDy=0;exitPerimeter=0;entryX=0;entryY=0.5;entryDx=0;entryDy=0;fontSize=26;endArrow=none;endFill=0;" edge="1" parent="1" source="jBOrhGmteX4rWtkHZ4kV-23" target="91"><mxGeometry relative="1" as="geometry"><Array as="points"><mxPoint x="402" y="-285"/><mxPoint x="843" y="-285"/><mxPoint x="843" y="-505"/></Array></mxGeometry></mxCell><mxCell id="jBOrhGmteX4rWtkHZ4kV-23" value="&lt;b&gt;&lt;font style=&quot;font-size: 29px;&quot;&gt;oFitoo Mobile&lt;/font&gt;&lt;/b&gt;" style="ellipse;shape=cloud;whiteSpace=wrap;html=1;rounded=1;fillColor=#f9f7ed;sketch=1;shadow=1;strokeColor=#36393d;" parent="1" vertex="1"><mxGeometry x="234" y="-134" width="269" height="149" as="geometry"/></mxCell><mxCell id="11" style="edgeStyle=orthogonalEdgeStyle;rounded=0;orthogonalLoop=1;jettySize=auto;html=1;exitX=0.55;exitY=0.95;exitDx=0;exitDy=0;exitPerimeter=0;entryX=0.092;entryY=0.017;entryDx=0;entryDy=0;entryPerimeter=0;startArrow=none;startFill=0;endArrow=none;endFill=0;" parent="1" source="jBOrhGmteX4rWtkHZ4kV-29" target="jBOrhGmteX4rWtkHZ4kV-2" edge="1"><mxGeometry relative="1" as="geometry"/></mxCell><mxCell id="jBOrhGmteX4rWtkHZ4kV-29" value="Google Auth" style="ellipse;shape=cloud;whiteSpace=wrap;html=1;rounded=1;" parent="1" vertex="1"><mxGeometry x="-74" y="-46" width="120" height="80" as="geometry"/></mxCell><mxCell id="jBOrhGmteX4rWtkHZ4kV-32" value="KeyCloak" style="shape=process;whiteSpace=wrap;html=1;backgroundOutline=1;" parent="1" vertex="1"><mxGeometry x="-66" y="234" width="120" height="63.5" as="geometry"/></mxCell><mxCell id="jBOrhGmteX4rWtkHZ4kV-37" value="" style="endArrow=none;dashed=1;html=1;rounded=0;exitX=0;exitY=0.5;exitDx=0;exitDy=0;entryX=1;entryY=0.5;entryDx=0;entryDy=0;" parent="1" source="jBOrhGmteX4rWtkHZ4kV-44" target="jBOrhGmteX4rWtkHZ4kV-32" edge="1"><mxGeometry width="50" height="50" relative="1" as="geometry"><mxPoint x="470" y="340" as="sourcePoint"/><mxPoint y="266" as="targetPoint"/></mxGeometry></mxCell><mxCell id="jBOrhGmteX4rWtkHZ4kV-39" value="" style="endArrow=none;dashed=1;html=1;dashPattern=1 4;strokeWidth=1;rounded=0;exitX=0.5;exitY=0;exitDx=0;exitDy=0;entryX=0.094;entryY=0.992;entryDx=0;entryDy=0;entryPerimeter=0;" parent="1" source="jBOrhGmteX4rWtkHZ4kV-32" target="jBOrhGmteX4rWtkHZ4kV-2" edge="1"><mxGeometry width="50" height="50" relative="1" as="geometry"><mxPoint x="640" y="240" as="sourcePoint"/><mxPoint x="-92" y="82" as="targetPoint"/></mxGeometry></mxCell><mxCell id="18" style="edgeStyle=orthogonalEdgeStyle;rounded=0;orthogonalLoop=1;jettySize=auto;html=1;exitX=0;exitY=0.75;exitDx=0;exitDy=0;entryX=0.5;entryY=0;entryDx=0;entryDy=0;entryPerimeter=0;dashed=1;dashPattern=1 4;strokeWidth=1;startArrow=none;startFill=0;endArrow=none;endFill=0;" parent="1" source="jBOrhGmteX4rWtkHZ4kV-43" target="17" edge="1"><mxGeometry relative="1" as="geometry"/></mxCell><mxCell id="124" style="edgeStyle=orthogonalEdgeStyle;rounded=0;orthogonalLoop=1;jettySize=auto;html=1;exitX=0.25;exitY=1;exitDx=0;exitDy=0;entryX=0.577;entryY=0.999;entryDx=0;entryDy=0;fontSize=26;startArrow=none;startFill=0;endArrow=none;endFill=0;entryPerimeter=0;dashed=1;strokeWidth=3;" edge="1" parent="1" source="jBOrhGmteX4rWtkHZ4kV-43" target="jBOrhGmteX4rWtkHZ4kV-44"><mxGeometry relative="1" as="geometry"><Array as="points"><mxPoint x="340" y="564"/><mxPoint x="179" y="564"/></Array></mxGeometry></mxCell><mxCell id="jBOrhGmteX4rWtkHZ4kV-43" value="product-service" style="rounded=1;whiteSpace=wrap;html=1;fillColor=#2A2A2A;gradientColor=#6A00FF;" parent="1" vertex="1"><mxGeometry x="307" y="225" width="130" height="70" as="geometry"/></mxCell><mxCell id="5" style="edgeStyle=orthogonalEdgeStyle;rounded=0;orthogonalLoop=1;jettySize=auto;html=1;endArrow=none;endFill=0;startArrow=none;startFill=0;" parent="1" source="jBOrhGmteX4rWtkHZ4kV-44" target="jBOrhGmteX4rWtkHZ4kV-51" edge="1"><mxGeometry relative="1" as="geometry"><Array as="points"><mxPoint x="124" y="321"/><mxPoint x="111" y="321"/></Array></mxGeometry></mxCell><mxCell id="41" style="edgeStyle=orthogonalEdgeStyle;rounded=0;orthogonalLoop=1;jettySize=auto;html=1;exitX=1;exitY=0.5;exitDx=0;exitDy=0;entryX=0.5;entryY=1;entryDx=0;entryDy=0;dashed=1;dashPattern=1 4;strokeWidth=3;startArrow=none;startFill=0;endArrow=none;endFill=0;fillColor=#d80073;strokeColor=#A50040;sketch=1;" parent="1" source="jBOrhGmteX4rWtkHZ4kV-44" target="jBOrhGmteX4rWtkHZ4kV-47" edge="1"><mxGeometry relative="1" as="geometry"><Array as="points"><mxPoint x="246" y="266"/><mxPoint x="246" y="445"/><mxPoint x="841" y="445"/></Array></mxGeometry></mxCell><mxCell id="jBOrhGmteX4rWtkHZ4kV-44" value="user-service" style="rounded=1;whiteSpace=wrap;html=1;gradientColor=#1BA1E2;" parent="1" vertex="1"><mxGeometry x="104" y="230.64" width="130" height="70" as="geometry"/></mxCell><mxCell id="29" style="edgeStyle=orthogonalEdgeStyle;rounded=0;orthogonalLoop=1;jettySize=auto;html=1;exitX=1;exitY=0.25;exitDx=0;exitDy=0;entryX=0;entryY=0.5;entryDx=0;entryDy=0;entryPerimeter=0;dashed=1;dashPattern=1 4;strokeWidth=1;startArrow=none;startFill=0;endArrow=none;endFill=0;" parent="1" source="jBOrhGmteX4rWtkHZ4kV-47" target="26" edge="1"><mxGeometry relative="1" as="geometry"/></mxCell><mxCell id="30" style="edgeStyle=orthogonalEdgeStyle;rounded=0;orthogonalLoop=1;jettySize=auto;html=1;exitX=1;exitY=0.5;exitDx=0;exitDy=0;dashed=1;dashPattern=1 4;strokeWidth=1;startArrow=none;startFill=0;endArrow=none;endFill=0;" parent="1" source="jBOrhGmteX4rWtkHZ4kV-47" target="28" edge="1"><mxGeometry relative="1" as="geometry"/></mxCell><mxCell id="34" style="edgeStyle=orthogonalEdgeStyle;rounded=0;orthogonalLoop=1;jettySize=auto;html=1;exitX=0.25;exitY=0;exitDx=0;exitDy=0;entryX=0.967;entryY=0.986;entryDx=0;entryDy=0;entryPerimeter=0;dashed=1;dashPattern=1 4;strokeWidth=1;startArrow=none;startFill=0;endArrow=none;endFill=0;" parent="1" source="jBOrhGmteX4rWtkHZ4kV-47" target="jBOrhGmteX4rWtkHZ4kV-2" edge="1"><mxGeometry relative="1" as="geometry"/></mxCell><mxCell id="jBOrhGmteX4rWtkHZ4kV-47" value="notification-service" style="rounded=1;whiteSpace=wrap;html=1;gradientColor=#E3C800;" parent="1" vertex="1"><mxGeometry x="776" y="226" width="130" height="70" as="geometry"/></mxCell><mxCell id="jBOrhGmteX4rWtkHZ4kV-51" value="postgres" style="shape=cylinder3;whiteSpace=wrap;html=1;boundedLbl=1;backgroundOutline=1;size=15;fontSize=16;gradientColor=#1BA1E2;" parent="1" vertex="1"><mxGeometry x="77" y="325" width="67" height="58" as="geometry"/></mxCell><mxCell id="16" style="edgeStyle=orthogonalEdgeStyle;rounded=0;orthogonalLoop=1;jettySize=auto;html=1;exitX=0.5;exitY=1;exitDx=0;exitDy=0;dashed=1;dashPattern=1 4;strokeWidth=1;startArrow=none;startFill=0;endArrow=none;endFill=0;" parent="1" source="jBOrhGmteX4rWtkHZ4kV-53" target="15" edge="1"><mxGeometry relative="1" as="geometry"/></mxCell><mxCell id="25" style="edgeStyle=orthogonalEdgeStyle;rounded=0;orthogonalLoop=1;jettySize=auto;html=1;exitX=0.5;exitY=0;exitDx=0;exitDy=0;entryX=0.846;entryY=1;entryDx=0;entryDy=0;entryPerimeter=0;dashed=1;dashPattern=1 4;strokeWidth=1;startArrow=none;startFill=0;endArrow=none;endFill=0;" parent="1" source="jBOrhGmteX4rWtkHZ4kV-53" target="jBOrhGmteX4rWtkHZ4kV-2" edge="1"><mxGeometry relative="1" as="geometry"/></mxCell><mxCell id="jBOrhGmteX4rWtkHZ4kV-53" value="habit-tracker-service" style="rounded=1;whiteSpace=wrap;html=1;fillColor=#2A2A2A;gradientColor=#008A00;" parent="1" vertex="1"><mxGeometry x="631" y="224" width="130" height="70" as="geometry"/></mxCell><mxCell id="14" style="edgeStyle=orthogonalEdgeStyle;rounded=0;orthogonalLoop=1;jettySize=auto;html=1;exitX=0.5;exitY=1;exitDx=0;exitDy=0;entryX=0.5;entryY=0;entryDx=0;entryDy=0;entryPerimeter=0;dashed=1;dashPattern=1 4;strokeWidth=1;startArrow=none;startFill=0;endArrow=none;endFill=0;" parent="1" source="jBOrhGmteX4rWtkHZ4kV-55" target="13" edge="1"><mxGeometry relative="1" as="geometry"/></mxCell><mxCell id="24" style="edgeStyle=orthogonalEdgeStyle;rounded=0;orthogonalLoop=1;jettySize=auto;html=1;exitX=0.5;exitY=0;exitDx=0;exitDy=0;entryX=0.681;entryY=0.983;entryDx=0;entryDy=0;entryPerimeter=0;dashed=1;dashPattern=1 4;strokeWidth=1;startArrow=none;startFill=0;endArrow=none;endFill=0;" parent="1" source="jBOrhGmteX4rWtkHZ4kV-55" target="jBOrhGmteX4rWtkHZ4kV-2" edge="1"><mxGeometry relative="1" as="geometry"/></mxCell><mxCell id="118" style="edgeStyle=orthogonalEdgeStyle;rounded=0;orthogonalLoop=1;jettySize=auto;html=1;exitX=0.347;exitY=0.998;exitDx=0;exitDy=0;entryX=0.75;entryY=1;entryDx=0;entryDy=0;fontSize=26;endArrow=none;endFill=0;exitPerimeter=0;dashed=1;dashPattern=1 2;fillColor=#008a00;strokeColor=#005700;strokeWidth=3;" edge="1" parent="1" source="jBOrhGmteX4rWtkHZ4kV-55" target="jBOrhGmteX4rWtkHZ4kV-44"><mxGeometry relative="1" as="geometry"><Array as="points"><mxPoint x="522" y="486"/><mxPoint x="211" y="486"/><mxPoint x="211" y="301"/></Array></mxGeometry></mxCell><mxCell id="120" style="edgeStyle=orthogonalEdgeStyle;rounded=0;orthogonalLoop=1;jettySize=auto;html=1;exitX=0.157;exitY=0.993;exitDx=0;exitDy=0;entryX=0.75;entryY=1;entryDx=0;entryDy=0;fontSize=26;endArrow=none;endFill=0;startArrow=none;startFill=0;exitPerimeter=0;dashed=1;dashPattern=1 4;strokeWidth=3;strokeColor=#000099;" edge="1" parent="1" source="jBOrhGmteX4rWtkHZ4kV-55" target="jBOrhGmteX4rWtkHZ4kV-43"><mxGeometry relative="1" as="geometry"><Array as="points"><mxPoint x="495" y="296"/><mxPoint x="495" y="564"/><mxPoint x="404" y="564"/></Array></mxGeometry></mxCell><mxCell id="jBOrhGmteX4rWtkHZ4kV-55" value="calorie-tracking-service" style="rounded=1;whiteSpace=wrap;html=1;gradientColor=#A0522D;fillColor=#2A2A2A;glass=0;sketch=0;" parent="1" vertex="1"><mxGeometry x="477" y="226" width="130" height="70" as="geometry"/></mxCell><mxCell id="jBOrhGmteX4rWtkHZ4kV-62" style="edgeStyle=none;curved=1;rounded=0;orthogonalLoop=1;jettySize=auto;html=1;entryX=0.262;entryY=0.996;entryDx=0;entryDy=0;entryPerimeter=0;fontSize=12;startSize=8;endSize=8;dashed=1;dashPattern=1 4;startArrow=none;startFill=0;endArrow=none;endFill=0;" parent="1" target="jBOrhGmteX4rWtkHZ4kV-2" edge="1"><mxGeometry relative="1" as="geometry"><mxPoint x="150" y="228.64" as="sourcePoint"/><mxPoint x="150.4140000000001" y="170" as="targetPoint"/></mxGeometry></mxCell><mxCell id="2" value="REST" style="text;html=1;strokeColor=none;fillColor=none;align=center;verticalAlign=middle;whiteSpace=wrap;rounded=0;rotation=-90;" parent="1" vertex="1"><mxGeometry x="119" y="193.64" width="50" height="10" as="geometry"/></mxCell><mxCell id="6" value="REST" style="text;html=1;strokeColor=none;fillColor=none;align=center;verticalAlign=middle;whiteSpace=wrap;rounded=0;rotation=-90;" parent="1" vertex="1"><mxGeometry x="-38" y="195" width="50" height="10" as="geometry"/></mxCell><mxCell id="9" style="edgeStyle=orthogonalEdgeStyle;rounded=0;orthogonalLoop=1;jettySize=auto;html=1;exitX=0.5;exitY=0;exitDx=0;exitDy=0;exitPerimeter=0;entryX=0.5;entryY=1;entryDx=0;entryDy=0;startArrow=none;startFill=0;endArrow=none;endFill=0;" parent="1" source="8" target="jBOrhGmteX4rWtkHZ4kV-32" edge="1"><mxGeometry relative="1" as="geometry"/></mxCell><mxCell id="8" value="H2" style="shape=cylinder3;whiteSpace=wrap;html=1;boundedLbl=1;backgroundOutline=1;size=15;fontSize=16;" parent="1" vertex="1"><mxGeometry x="-41" y="317" width="67" height="58" as="geometry"/></mxCell><mxCell id="13" value="postgres" style="shape=cylinder3;whiteSpace=wrap;html=1;boundedLbl=1;backgroundOutline=1;size=15;fontSize=16;gradientColor=#A0522D;" parent="1" vertex="1"><mxGeometry x="543" y="318" width="67" height="58" as="geometry"/></mxCell><mxCell id="15" value="postgres" style="shape=cylinder3;whiteSpace=wrap;html=1;boundedLbl=1;backgroundOutline=1;size=15;fontSize=16;gradientColor=#008A00;" parent="1" vertex="1"><mxGeometry x="663.5" y="314" width="67" height="58" as="geometry"/></mxCell><mxCell id="17" value="mongodb" style="shape=cylinder3;whiteSpace=wrap;html=1;boundedLbl=1;backgroundOutline=1;size=15;fontSize=16;gradientColor=#6A00FF;" parent="1" vertex="1"><mxGeometry x="257" y="311" width="70" height="50" as="geometry"/></mxCell><mxCell id="22" value="REST" style="text;html=1;strokeColor=none;fillColor=none;align=center;verticalAlign=middle;whiteSpace=wrap;rounded=0;rotation=-90;" parent="1" vertex="1"><mxGeometry x="339" y="191" width="50" height="10" as="geometry"/></mxCell><mxCell id="40" style="edgeStyle=orthogonalEdgeStyle;rounded=0;orthogonalLoop=1;jettySize=auto;html=1;exitX=0;exitY=0;exitDx=65;exitDy=60.5;exitPerimeter=0;entryX=0.16;entryY=0.55;entryDx=0;entryDy=0;entryPerimeter=0;dashed=1;dashPattern=1 4;strokeWidth=1;startArrow=none;startFill=0;endArrow=none;endFill=0;" parent="1" source="26" target="39" edge="1"><mxGeometry relative="1" as="geometry"/></mxCell><mxCell id="26" value="SMS" style="shape=note;whiteSpace=wrap;html=1;backgroundOutline=1;darkOpacity=0.05;" parent="1" vertex="1"><mxGeometry x="992" y="180" width="65" height="91" as="geometry"/></mxCell><mxCell id="28" value="EMAIL" style="shape=note;whiteSpace=wrap;html=1;backgroundOutline=1;darkOpacity=0.05;" parent="1" vertex="1"><mxGeometry x="991" y="295" width="65" height="91" as="geometry"/></mxCell><mxCell id="35" value="REST" style="text;html=1;strokeColor=none;fillColor=none;align=center;verticalAlign=middle;whiteSpace=wrap;rounded=0;rotation=-90;" parent="1" vertex="1"><mxGeometry x="508" y="190" width="50" height="10" as="geometry"/></mxCell><mxCell id="36" value="REST" style="text;html=1;strokeColor=none;fillColor=none;align=center;verticalAlign=middle;whiteSpace=wrap;rounded=0;rotation=-90;" parent="1" vertex="1"><mxGeometry x="662" y="191" width="50" height="10" as="geometry"/></mxCell><mxCell id="37" value="REST" style="text;html=1;strokeColor=none;fillColor=none;align=center;verticalAlign=middle;whiteSpace=wrap;rounded=0;rotation=-90;" parent="1" vertex="1"><mxGeometry x="774" y="193" width="50" height="10" as="geometry"/></mxCell><mxCell id="39" value="SMS-API" style="ellipse;shape=cloud;whiteSpace=wrap;html=1;" parent="1" vertex="1"><mxGeometry x="1118" y="160" width="120" height="80" as="geometry"/></mxCell><mxCell id="44" value="RabbitMQ" style="text;html=1;align=center;verticalAlign=middle;whiteSpace=wrap;rounded=0;fontColor=#CC0066;" parent="1" vertex="1"><mxGeometry x="610" y="444" width="60" height="30" as="geometry"/></mxCell><mxCell id="51" style="edgeStyle=orthogonalEdgeStyle;rounded=0;orthogonalLoop=1;jettySize=auto;html=1;exitX=1;exitY=0.5;exitDx=0;exitDy=0;entryX=0.07;entryY=0.4;entryDx=0;entryDy=0;entryPerimeter=0;" edge="1" parent="1" source="48" target="jBOrhGmteX4rWtkHZ4kV-23"><mxGeometry relative="1" as="geometry"/></mxCell><mxCell id="48" value="&lt;h1&gt;utworzenie nowego konta&lt;/h1&gt;&lt;div&gt;-za pomocą własnego email lub nr telefonu (potwierdzenie email lub nr telefonu kodem - asynch)&lt;/div&gt;&lt;div&gt;-za pomocą autoryzacji z google Auth&lt;/div&gt;&lt;div&gt;(&lt;/div&gt;" style="text;html=1;strokeColor=none;fillColor=none;spacing=5;spacingTop=-20;whiteSpace=wrap;overflow=hidden;rounded=0;" vertex="1" parent="1"><mxGeometry x="-319" y="-694" width="317" height="91" as="geometry"/></mxCell><mxCell id="52" style="edgeStyle=orthogonalEdgeStyle;rounded=0;orthogonalLoop=1;jettySize=auto;html=1;exitX=1;exitY=0.5;exitDx=0;exitDy=0;entryX=0.07;entryY=0.4;entryDx=0;entryDy=0;entryPerimeter=0;" edge="1" parent="1" source="50" target="jBOrhGmteX4rWtkHZ4kV-23"><mxGeometry relative="1" as="geometry"/></mxCell><mxCell id="50" value="&lt;h1&gt;logowanie się do konta&lt;/h1&gt;&lt;div&gt;-za pomocą email/ nr telefonu lub google&lt;/div&gt;&lt;div&gt;&amp;nbsp;wygenerowanie JWT Token który będzie przekazywany&lt;/div&gt;&lt;div&gt;&amp;nbsp;do następnych microserwisów lub api gateway&lt;/div&gt;" style="text;html=1;strokeColor=none;fillColor=none;spacing=5;spacingTop=-20;whiteSpace=wrap;overflow=hidden;rounded=0;" vertex="1" parent="1"><mxGeometry x="-315" y="-554" width="317" height="114" as="geometry"/></mxCell><mxCell id="54" style="edgeStyle=orthogonalEdgeStyle;rounded=0;orthogonalLoop=1;jettySize=auto;html=1;exitX=1;exitY=0.5;exitDx=0;exitDy=0;entryX=0.07;entryY=0.4;entryDx=0;entryDy=0;entryPerimeter=0;" edge="1" parent="1" source="53" target="jBOrhGmteX4rWtkHZ4kV-23"><mxGeometry relative="1" as="geometry"/></mxCell><mxCell id="53" value="&lt;h1&gt;edytowanie profilu konta&lt;span style=&quot;white-space: pre;&quot;&gt;&#9;&lt;/span&gt;&lt;/h1&gt;&lt;div&gt;-mozliwość edytowania danych takich jak płeć, wzrost, waga, data urodzenia&lt;/div&gt;&lt;div&gt;-mozliwość edytowania nr telefonu lub email&lt;/div&gt;" style="text;html=1;strokeColor=none;fillColor=none;spacing=5;spacingTop=-20;whiteSpace=wrap;overflow=hidden;rounded=0;" vertex="1" parent="1"><mxGeometry x="-318" y="-441" width="330" height="114" as="geometry"/></mxCell><mxCell id="62" style="edgeStyle=orthogonalEdgeStyle;rounded=0;orthogonalLoop=1;jettySize=auto;html=1;exitX=0;exitY=0.5;exitDx=0;exitDy=0;entryX=0.4;entryY=0.1;entryDx=0;entryDy=0;entryPerimeter=0;" edge="1" parent="1" source="55" target="jBOrhGmteX4rWtkHZ4kV-23"><mxGeometry relative="1" as="geometry"/></mxCell><mxCell id="55" value="&lt;h1&gt;Wyszukiwanie produktu&lt;/h1&gt;&lt;div&gt;-wyszukiwanie po barcode produktu&lt;/div&gt;&lt;div&gt;-wyszukiwanie zdjeciem (barcode)&lt;/div&gt;&lt;div&gt;-wyszukiwanie po nazwie produktu&lt;/div&gt;" style="text;html=1;strokeColor=none;fillColor=none;spacing=5;spacingTop=-20;whiteSpace=wrap;overflow=hidden;rounded=0;" vertex="1" parent="1"><mxGeometry x="362" y="-1020" width="317" height="91" as="geometry"/></mxCell><mxCell id="61" style="edgeStyle=orthogonalEdgeStyle;rounded=0;orthogonalLoop=1;jettySize=auto;html=1;exitX=0;exitY=0.5;exitDx=0;exitDy=0;entryX=0.4;entryY=0.1;entryDx=0;entryDy=0;entryPerimeter=0;" edge="1" parent="1" source="56" target="jBOrhGmteX4rWtkHZ4kV-23"><mxGeometry relative="1" as="geometry"/></mxCell><mxCell id="56" value="&lt;h1&gt;Dodanie produktu&lt;/h1&gt;&lt;div&gt;-dodanie po barcode produktu + nazwa&lt;/div&gt;&lt;div&gt;-dodanie po zdjeciu (barcode)&lt;/div&gt;" style="text;html=1;strokeColor=none;fillColor=none;spacing=5;spacingTop=-20;whiteSpace=wrap;overflow=hidden;rounded=0;" vertex="1" parent="1"><mxGeometry x="363" y="-916" width="317" height="91" as="geometry"/></mxCell><mxCell id="60" style="edgeStyle=orthogonalEdgeStyle;rounded=0;orthogonalLoop=1;jettySize=auto;html=1;exitX=0;exitY=0.5;exitDx=0;exitDy=0;entryX=0.4;entryY=0.1;entryDx=0;entryDy=0;entryPerimeter=0;" edge="1" parent="1" source="57" target="jBOrhGmteX4rWtkHZ4kV-23"><mxGeometry relative="1" as="geometry"/></mxCell><mxCell id="57" value="&lt;h1&gt;Usunięcie produktu&lt;/h1&gt;&lt;div&gt;-usunięcie wyszukanego produktu o danym id z bazy danych (o ile jest to produkt tylko nasz czyli nie opublikowane dla innych)&lt;/div&gt;&lt;div&gt;&lt;br&gt;&lt;/div&gt;" style="text;html=1;strokeColor=none;fillColor=none;spacing=5;spacingTop=-20;whiteSpace=wrap;overflow=hidden;rounded=0;" vertex="1" parent="1"><mxGeometry x="363" y="-819" width="368" height="91" as="geometry"/></mxCell><mxCell id="59" style="edgeStyle=orthogonalEdgeStyle;rounded=0;orthogonalLoop=1;jettySize=auto;html=1;exitX=0;exitY=0.5;exitDx=0;exitDy=0;entryX=0.4;entryY=0.1;entryDx=0;entryDy=0;entryPerimeter=0;" edge="1" parent="1" source="58" target="jBOrhGmteX4rWtkHZ4kV-23"><mxGeometry relative="1" as="geometry"/></mxCell><mxCell id="58" value="&lt;h1&gt;Edytowanie produktu&lt;/h1&gt;&lt;div&gt;-edytowanie wyszukanego produktu o danym id z bazy danych (edycja może zostać odrzucona, wymaga akceptacji przez administratora - asynchronicznie)&lt;/div&gt;&lt;div&gt;&lt;br&gt;&lt;/div&gt;" style="text;html=1;strokeColor=none;fillColor=none;spacing=5;spacingTop=-20;whiteSpace=wrap;overflow=hidden;rounded=0;" vertex="1" parent="1"><mxGeometry x="363" y="-731" width="368" height="91" as="geometry"/></mxCell><mxCell id="113" style="edgeStyle=orthogonalEdgeStyle;rounded=0;orthogonalLoop=1;jettySize=auto;html=1;exitX=0;exitY=0.25;exitDx=0;exitDy=0;entryX=0.96;entryY=0.7;entryDx=0;entryDy=0;entryPerimeter=0;fontSize=26;" edge="1" parent="1" source="63" target="jBOrhGmteX4rWtkHZ4kV-23"><mxGeometry relative="1" as="geometry"><Array as="points"><mxPoint x="1418" y="-195"/><mxPoint x="1418" y="-30"/></Array></mxGeometry></mxCell><mxCell id="63" value="&lt;h1&gt;Dodanie nawyku&lt;/h1&gt;&lt;div&gt;-dodanie nawyku z jej nazwą do codziennej rutyny&lt;/div&gt;&lt;div&gt;-dodanie nawyku z jej nazwą w określone dni tygodnia&lt;/div&gt;" style="text;html=1;strokeColor=none;fillColor=none;spacing=5;spacingTop=-20;whiteSpace=wrap;overflow=hidden;rounded=0;" vertex="1" parent="1"><mxGeometry x="1444" y="-220" width="317" height="99" as="geometry"/></mxCell><mxCell id="114" style="edgeStyle=orthogonalEdgeStyle;rounded=0;orthogonalLoop=1;jettySize=auto;html=1;exitX=0;exitY=0.25;exitDx=0;exitDy=0;entryX=0.96;entryY=0.7;entryDx=0;entryDy=0;entryPerimeter=0;fontSize=26;" edge="1" parent="1" source="64" target="jBOrhGmteX4rWtkHZ4kV-23"><mxGeometry relative="1" as="geometry"><Array as="points"><mxPoint x="1418" y="-113"/><mxPoint x="1418" y="-30"/><mxPoint x="492" y="-30"/></Array></mxGeometry></mxCell><mxCell id="64" value="&lt;h1&gt;Usunięcie nawyku&lt;/h1&gt;&lt;div&gt;-usunięcie wybranego nawyku po id&lt;br&gt;&lt;/div&gt;&lt;div&gt;&lt;br&gt;&lt;/div&gt;" style="text;html=1;strokeColor=none;fillColor=none;spacing=5;spacingTop=-20;whiteSpace=wrap;overflow=hidden;rounded=0;" vertex="1" parent="1"><mxGeometry x="1440" y="-131" width="317" height="72" as="geometry"/></mxCell><mxCell id="115" style="edgeStyle=orthogonalEdgeStyle;rounded=0;orthogonalLoop=1;jettySize=auto;html=1;entryX=0.96;entryY=0.7;entryDx=0;entryDy=0;entryPerimeter=0;fontSize=26;startArrow=none;" edge="1" parent="1" source="81" target="jBOrhGmteX4rWtkHZ4kV-23"><mxGeometry relative="1" as="geometry"><mxPoint x="1440" y="-31" as="sourcePoint"/><Array as="points"/></mxGeometry></mxCell><mxCell id="65" value="&lt;h1&gt;Edycja nawyku&lt;/h1&gt;&lt;div&gt;-edycja wybranego nawyku po id (edytowanie nazwy lub okresu powtarzalności rutyny)&lt;br&gt;&lt;/div&gt;&lt;div&gt;&lt;br&gt;&lt;/div&gt;" style="text;html=1;strokeColor=none;fillColor=none;spacing=5;spacingTop=-20;whiteSpace=wrap;overflow=hidden;rounded=0;" vertex="1" parent="1"><mxGeometry x="1441" y="-53" width="317" height="85" as="geometry"/></mxCell><mxCell id="66" value="&lt;b&gt;&lt;font style=&quot;font-size: 26px;&quot;&gt;habit-tracker-service&lt;/font&gt;&lt;/b&gt;" style="text;html=1;strokeColor=#005700;fillColor=#008a00;align=center;verticalAlign=middle;whiteSpace=wrap;rounded=1;fontColor=#ffffff;glass=1;sketch=1;" vertex="1" parent="1"><mxGeometry x="1333" y="-283" width="423" height="45" as="geometry"/></mxCell><mxCell id="67" value="&lt;b style=&quot;color: rgb(240, 240, 240); font-family: Helvetica; font-size: 12px; font-style: normal; font-variant-ligatures: normal; font-variant-caps: normal; letter-spacing: normal; orphans: 2; text-align: center; text-indent: 0px; text-transform: none; widows: 2; word-spacing: 0px; -webkit-text-stroke-width: 0px; background-color: rgb(42, 42, 42); text-decoration-thickness: initial; text-decoration-style: initial; text-decoration-color: initial;&quot;&gt;&lt;font style=&quot;font-size: 26px;&quot;&gt;product-service&lt;/font&gt;&lt;/b&gt;" style="text;whiteSpace=wrap;html=1;fontSize=26;fillColor=#6a00ff;fontColor=#ffffff;strokeColor=#3700CC;rounded=1;glass=1;sketch=1;shadow=0;" vertex="1" parent="1"><mxGeometry x="258" y="-1071" width="464" height="42" as="geometry"/></mxCell><mxCell id="68" value="&lt;b style=&quot;color: rgb(240, 240, 240); font-family: Helvetica; font-size: 12px; font-style: normal; font-variant-ligatures: normal; font-variant-caps: normal; letter-spacing: normal; orphans: 2; text-align: center; text-indent: 0px; text-transform: none; widows: 2; word-spacing: 0px; -webkit-text-stroke-width: 0px; background-color: rgb(42, 42, 42); text-decoration-thickness: initial; text-decoration-style: initial; text-decoration-color: initial;&quot;&gt;&lt;font style=&quot;font-size: 26px;&quot;&gt;user-service&lt;/font&gt;&lt;/b&gt;" style="text;whiteSpace=wrap;html=1;fontSize=26;fillColor=#1ba1e2;fontColor=#ffffff;strokeColor=#006EAF;rounded=1;glass=1;sketch=1;" vertex="1" parent="1"><mxGeometry x="-408" y="-744" width="390" height="41" as="geometry"/></mxCell><mxCell id="72" value="POST" style="text;html=1;align=center;verticalAlign=middle;whiteSpace=wrap;rounded=0;fontSize=26;fillColor=#e3c800;fontColor=#000000;strokeColor=#B09500;" vertex="1" parent="1"><mxGeometry x="-404" y="-688" width="73" height="39" as="geometry"/></mxCell><mxCell id="74" value="PUT" style="text;html=1;align=center;verticalAlign=middle;whiteSpace=wrap;rounded=0;fontSize=26;fillColor=#e3c800;fontColor=#000000;strokeColor=#B09500;" vertex="1" parent="1"><mxGeometry x="-401" y="-434" width="71" height="35" as="geometry"/></mxCell><mxCell id="75" value="GET" style="text;html=1;align=center;verticalAlign=middle;whiteSpace=wrap;rounded=0;fontSize=26;fillColor=#6d8764;fontColor=#ffffff;strokeColor=#3A5431;" vertex="1" parent="1"><mxGeometry x="264" y="-1014" width="81" height="38" as="geometry"/></mxCell><mxCell id="76" value="POST" style="text;html=1;align=center;verticalAlign=middle;whiteSpace=wrap;rounded=0;fontSize=26;fillColor=#e3c800;fontColor=#000000;strokeColor=#B09500;" vertex="1" parent="1"><mxGeometry x="-405" y="-556" width="73" height="39" as="geometry"/></mxCell><mxCell id="77" value="POST" style="text;html=1;align=center;verticalAlign=middle;whiteSpace=wrap;rounded=0;fontSize=26;fillColor=#e3c800;fontColor=#000000;strokeColor=#B09500;" vertex="1" parent="1"><mxGeometry x="266" y="-912" width="73" height="39" as="geometry"/></mxCell><mxCell id="78" value="PUT" style="text;html=1;align=center;verticalAlign=middle;whiteSpace=wrap;rounded=0;fontSize=26;fillColor=#e3c800;fontColor=#000000;strokeColor=#B09500;" vertex="1" parent="1"><mxGeometry x="264" y="-721" width="71" height="35" as="geometry"/></mxCell><mxCell id="79" value="&lt;font style=&quot;font-size: 19px;&quot;&gt;DELETE&lt;/font&gt;" style="text;html=1;align=center;verticalAlign=middle;whiteSpace=wrap;rounded=0;fontSize=26;fillColor=#e51400;fontColor=#ffffff;strokeColor=#B20000;" vertex="1" parent="1"><mxGeometry x="264" y="-810" width="76" height="36" as="geometry"/></mxCell><mxCell id="80" value="POST" style="text;html=1;align=center;verticalAlign=middle;whiteSpace=wrap;rounded=0;fontSize=26;fillColor=#e3c800;fontColor=#000000;strokeColor=#B09500;" vertex="1" parent="1"><mxGeometry x="1330" y="-210" width="73" height="39" as="geometry"/></mxCell><mxCell id="82" value="&lt;font style=&quot;font-size: 19px;&quot;&gt;DELETE&lt;/font&gt;" style="text;html=1;align=center;verticalAlign=middle;whiteSpace=wrap;rounded=0;fontSize=26;fillColor=#e51400;fontColor=#ffffff;strokeColor=#B20000;" vertex="1" parent="1"><mxGeometry x="1328" y="-122" width="76" height="36" as="geometry"/></mxCell><mxCell id="83" value="&lt;span style=&quot;color: rgb(240, 240, 240); text-align: center;&quot;&gt;&lt;font style=&quot;font-size: 26px;&quot;&gt;calorie-tracking-service&lt;/font&gt;&lt;/span&gt;" style="text;whiteSpace=wrap;html=1;fontSize=26;fillColor=#a0522d;fontColor=#ffffff;strokeColor=#6D1F00;rounded=1;glass=1;sketch=1;" vertex="1" parent="1"><mxGeometry x="857" y="-733" width="464" height="53" as="geometry"/></mxCell><mxCell id="88" value="&lt;span style=&quot;color: rgb(240, 240, 240); text-align: center;&quot;&gt;&lt;font style=&quot;font-size: 26px;&quot;&gt;notification-service&lt;/font&gt;&lt;/span&gt;" style="text;whiteSpace=wrap;html=1;fontSize=26;rounded=1;glass=1;sketch=1;fillColor=#e3c800;fontColor=#000000;strokeColor=#B09500;" vertex="1" parent="1"><mxGeometry x="1383" y="246" width="511" height="53" as="geometry"/></mxCell><mxCell id="89" value="&lt;h1&gt;Obliczanie Zera Kalorycznego&lt;/h1&gt;&lt;div&gt;- na podstawie danych biometrycznych z user-service oblicza zero kaloryczne&lt;/div&gt;&lt;div&gt;- na podstawie zera kalorycznego i danych czy użytkownik chce schudnąć przytyć czy pozostać na danej wadze oraz jeżeli chce schudnąć /przytyć obcinamy/dodajemy kalorie i liczymy dostępną ilość kalorii na dany dzień&lt;span style=&quot;background-color: initial;&quot;&gt;&amp;nbsp;&lt;/span&gt;&lt;/div&gt;&lt;div&gt;&lt;br&gt;&lt;/div&gt;" style="text;html=1;strokeColor=none;fillColor=none;spacing=5;spacingTop=-20;whiteSpace=wrap;overflow=hidden;rounded=0;" vertex="1" parent="1"><mxGeometry x="860" y="-666" width="458" height="122" as="geometry"/></mxCell><mxCell id="90" value="GET" style="text;html=1;align=center;verticalAlign=middle;whiteSpace=wrap;rounded=0;fontSize=26;fillColor=#6d8764;fontColor=#ffffff;strokeColor=#3A5431;" vertex="1" parent="1"><mxGeometry x="749" y="-530" width="81" height="38" as="geometry"/></mxCell><mxCell id="91" value="&lt;h1&gt;Pobranie zapotrzebowania kalorycznego danego użytkownika&lt;/h1&gt;" style="text;html=1;strokeColor=none;fillColor=none;spacing=5;spacingTop=-20;whiteSpace=wrap;overflow=hidden;rounded=0;" vertex="1" parent="1"><mxGeometry x="867" y="-529" width="810" height="47" as="geometry"/></mxCell><mxCell id="92" value="GET" style="text;html=1;align=center;verticalAlign=middle;whiteSpace=wrap;rounded=0;fontSize=26;fillColor=#6d8764;fontColor=#ffffff;strokeColor=#3A5431;" vertex="1" parent="1"><mxGeometry x="750" y="-479" width="81" height="38" as="geometry"/></mxCell><mxCell id="110" style="edgeStyle=orthogonalEdgeStyle;rounded=0;orthogonalLoop=1;jettySize=auto;html=1;exitX=0;exitY=0.5;exitDx=0;exitDy=0;fontSize=26;entryX=0.625;entryY=0.2;entryDx=0;entryDy=0;entryPerimeter=0;" edge="1" parent="1" source="93" target="jBOrhGmteX4rWtkHZ4kV-23"><mxGeometry relative="1" as="geometry"><Array as="points"><mxPoint x="843" y="-459"/><mxPoint x="843" y="-287"/><mxPoint x="402" y="-287"/></Array></mxGeometry></mxCell><mxCell id="93" value="&lt;h1&gt;Pobranie spożytych kalorii na podstawie danych z product-service&lt;/h1&gt;" style="text;html=1;strokeColor=none;fillColor=none;spacing=5;spacingTop=-20;whiteSpace=wrap;overflow=hidden;rounded=0;" vertex="1" parent="1"><mxGeometry x="869" y="-483" width="796" height="47" as="geometry"/></mxCell><mxCell id="94" value="&lt;h1&gt;Wysłanie wiadomości SMS do użytkownika&lt;/h1&gt;&lt;div&gt;- w przypadku rejestracji się po numerze telefonu lub w przypadku póżniejszego przypisania numeru telefonu&lt;/div&gt;" style="text;html=1;strokeColor=none;fillColor=none;spacing=5;spacingTop=-20;whiteSpace=wrap;overflow=hidden;rounded=0;" vertex="1" parent="1"><mxGeometry x="1386" y="312" width="551" height="122" as="geometry"/></mxCell><mxCell id="96" value="&lt;h1&gt;Wysłanie wiadomosci email&lt;/h1&gt;&lt;div&gt;- w przypadku rejestracji się po danym email lub w przypadku póżniejszego przypisania email'a&lt;/div&gt;&lt;div&gt;&lt;br&gt;&lt;/div&gt;" style="text;html=1;strokeColor=none;fillColor=none;spacing=5;spacingTop=-20;whiteSpace=wrap;overflow=hidden;rounded=0;" vertex="1" parent="1"><mxGeometry x="1383" y="416" width="553" height="122" as="geometry"/></mxCell><mxCell id="100" value="" style="endArrow=classic;html=1;rounded=0;fontSize=26;" edge="1" parent="1"><mxGeometry relative="1" as="geometry"><mxPoint x="1246" y="292" as="sourcePoint"/><mxPoint x="1363" y="292" as="targetPoint"/></mxGeometry></mxCell><mxCell id="101" value="" style="shape=message;html=1;outlineConnect=0;rounded=1;shadow=1;glass=0;sketch=1;fontSize=26;" vertex="1" parent="100"><mxGeometry width="32" height="24" relative="1" as="geometry"><mxPoint x="-22" y="-7" as="offset"/></mxGeometry></mxCell><mxCell id="103" value="" style="endArrow=classic;html=1;rounded=0;fontSize=26;" edge="1" parent="1"><mxGeometry relative="1" as="geometry"><mxPoint x="1252" y="434" as="sourcePoint"/><mxPoint x="1369" y="434" as="targetPoint"/></mxGeometry></mxCell><mxCell id="104" value="" style="shape=message;html=1;outlineConnect=0;rounded=1;shadow=1;glass=0;sketch=1;fontSize=26;" vertex="1" parent="103"><mxGeometry width="32" height="24" relative="1" as="geometry"><mxPoint x="-22" y="-7" as="offset"/></mxGeometry></mxCell><mxCell id="105" value="POST" style="text;html=1;align=center;verticalAlign=middle;whiteSpace=wrap;rounded=0;fontSize=26;fillColor=#e3c800;fontColor=#000000;strokeColor=#B09500;" vertex="1" parent="1"><mxGeometry x="1261" y="252" width="77" height="29" as="geometry"/></mxCell><mxCell id="106" value="Integracja z&amp;nbsp; pocztą" style="text;html=1;strokeColor=none;fillColor=none;align=center;verticalAlign=middle;whiteSpace=wrap;rounded=0;shadow=1;glass=0;sketch=1;fontSize=26;" vertex="1" parent="1"><mxGeometry x="1237" y="454" width="146" height="62" as="geometry"/></mxCell><mxCell id="81" value="PUT" style="text;html=1;align=center;verticalAlign=middle;whiteSpace=wrap;rounded=0;fontSize=26;fillColor=#e3c800;fontColor=#000000;strokeColor=#B09500;" vertex="1" parent="1"><mxGeometry x="1336" y="-50" width="71" height="35" as="geometry"/></mxCell><mxCell id="117" value="" style="edgeStyle=orthogonalEdgeStyle;rounded=0;orthogonalLoop=1;jettySize=auto;html=1;entryX=0.96;entryY=0.7;entryDx=0;entryDy=0;entryPerimeter=0;fontSize=26;endArrow=none;" edge="1" parent="1" target="81"><mxGeometry relative="1" as="geometry"><mxPoint x="1440" y="-31" as="sourcePoint"/><mxPoint x="492.24000000000024" y="-29.700000000000045" as="targetPoint"/><Array as="points"><mxPoint x="1441" y="-30"/><mxPoint x="972" y="-30"/></Array></mxGeometry></mxCell><mxCell id="119" value="REST" style="text;html=1;strokeColor=none;fillColor=none;align=center;verticalAlign=middle;whiteSpace=wrap;rounded=0;fontColor=#00CC00;" vertex="1" parent="1"><mxGeometry x="213" y="482" width="60" height="30" as="geometry"/></mxCell><mxCell id="121" value="REST" style="text;html=1;align=center;verticalAlign=middle;whiteSpace=wrap;rounded=0;fontColor=#000099;" vertex="1" parent="1"><mxGeometry x="417" y="563" width="60" height="30" as="geometry"/></mxCell><mxCell id="125" value="REST" style="text;html=1;strokeColor=none;fillColor=none;align=center;verticalAlign=middle;whiteSpace=wrap;rounded=0;" vertex="1" parent="1"><mxGeometry x="239" y="561" width="60" height="30" as="geometry"/></mxCell><mxCell id="127" value="&lt;font style=&quot;font-size: 10px;&quot; color=&quot;#ffffff&quot;&gt;REST&lt;/font&gt;" style="text;html=1;strokeColor=none;fillColor=none;align=center;verticalAlign=middle;whiteSpace=wrap;rounded=0;shadow=1;glass=0;sketch=1;fontSize=26;fontColor=#000099;" vertex="1" parent="1"><mxGeometry x="950" y="196" width="37" height="24" as="geometry"/></mxCell></root></mxGraphModel></diagram></mxfile>